<svg width="275" height="107" viewBox="0 0 275 107" fill="none" xmlns="http://www.w3.org/2000/svg">
<path d="M129.523 30.9091H133.727L143.614 55.0568H143.955L153.841 30.9091H158.045V60H154.75V37.8977H154.466L145.375 60H142.193L133.102 37.8977H132.818V60H129.523V30.9091ZM173.518 60.4545C171.548 60.4545 169.82 59.9858 168.333 59.0483C166.856 58.1108 165.701 56.7992 164.867 55.1136C164.043 53.428 163.631 51.4583 163.631 49.2045C163.631 46.9318 164.043 44.9479 164.867 43.2528C165.701 41.5578 166.856 40.2415 168.333 39.304C169.82 38.3665 171.548 37.8977 173.518 37.8977C175.487 37.8977 177.211 38.3665 178.688 39.304C180.175 40.2415 181.33 41.5578 182.154 43.2528C182.987 44.9479 183.404 46.9318 183.404 49.2045C183.404 51.4583 182.987 53.428 182.154 55.1136C181.33 56.7992 180.175 58.1108 178.688 59.0483C177.211 59.9858 175.487 60.4545 173.518 60.4545ZM173.518 57.4432C175.014 57.4432 176.245 57.0597 177.211 56.2926C178.177 55.5256 178.892 54.517 179.356 53.267C179.82 52.017 180.052 50.6629 180.052 49.2045C180.052 47.7462 179.82 46.3873 179.356 45.1278C178.892 43.8684 178.177 42.8504 177.211 42.0739C176.245 41.2973 175.014 40.9091 173.518 40.9091C172.022 40.9091 170.79 41.2973 169.825 42.0739C168.859 42.8504 168.144 43.8684 167.68 45.1278C167.216 46.3873 166.984 47.7462 166.984 49.2045C166.984 50.6629 167.216 52.017 167.68 53.267C168.144 54.517 168.859 55.5256 169.825 56.2926C170.79 57.0597 172.022 57.4432 173.518 57.4432ZM197.385 60.4545C195.415 60.4545 193.687 59.9858 192.2 59.0483C190.723 58.1108 189.568 56.7992 188.734 55.1136C187.911 53.428 187.499 51.4583 187.499 49.2045C187.499 46.9318 187.911 44.9479 188.734 43.2528C189.568 41.5578 190.723 40.2415 192.2 39.304C193.687 38.3665 195.415 37.8977 197.385 37.8977C199.355 37.8977 201.078 38.3665 202.555 39.304C204.042 40.2415 205.197 41.5578 206.021 43.2528C206.855 44.9479 207.271 46.9318 207.271 49.2045C207.271 51.4583 206.855 53.428 206.021 55.1136C205.197 56.7992 204.042 58.1108 202.555 59.0483C201.078 59.9858 199.355 60.4545 197.385 60.4545ZM197.385 57.4432C198.881 57.4432 200.112 57.0597 201.078 56.2926C202.044 55.5256 202.759 54.517 203.223 53.267C203.687 52.017 203.919 50.6629 203.919 49.2045C203.919 47.7462 203.687 46.3873 203.223 45.1278C202.759 43.8684 202.044 42.8504 201.078 42.0739C200.112 41.2973 198.881 40.9091 197.385 40.9091C195.889 40.9091 194.658 41.2973 193.692 42.0739C192.726 42.8504 192.011 43.8684 191.547 45.1278C191.083 46.3873 190.851 47.7462 190.851 49.2045C190.851 50.6629 191.083 52.017 191.547 53.267C192.011 54.517 192.726 55.5256 193.692 56.2926C194.658 57.0597 195.889 57.4432 197.385 57.4432ZM220.627 60.4545C218.809 60.4545 217.204 59.9953 215.812 59.0767C214.42 58.1487 213.331 56.8419 212.545 55.1562C211.759 53.4612 211.366 51.4583 211.366 49.1477C211.366 46.8561 211.759 44.8674 212.545 43.1818C213.331 41.4962 214.424 40.1941 215.826 39.2756C217.228 38.357 218.847 37.8977 220.684 37.8977C222.104 37.8977 223.227 38.1345 224.05 38.608C224.884 39.072 225.518 39.6023 225.954 40.1989C226.399 40.786 226.745 41.2689 226.991 41.6477H227.275V30.9091H230.627V60H227.388V56.6477H226.991C226.745 57.0455 226.394 57.5473 225.94 58.1534C225.485 58.75 224.836 59.285 223.994 59.7585C223.151 60.2225 222.029 60.4545 220.627 60.4545ZM221.082 57.4432C222.426 57.4432 223.563 57.0928 224.491 56.392C225.419 55.6818 226.124 54.7017 226.607 53.4517C227.09 52.1922 227.332 50.7386 227.332 49.0909C227.332 47.4621 227.095 46.0369 226.621 44.8153C226.148 43.5843 225.447 42.6278 224.519 41.946C223.591 41.2547 222.445 40.9091 221.082 40.9091C219.661 40.9091 218.478 41.2737 217.531 42.0028C216.593 42.7225 215.888 43.7027 215.414 44.9432C214.95 46.1742 214.718 47.5568 214.718 49.0909C214.718 50.6439 214.955 52.0549 215.428 53.3239C215.911 54.5833 216.621 55.5871 217.559 56.3352C218.506 57.0739 219.68 57.4432 221.082 57.4432ZM237.232 60V38.1818H240.585V60H237.232ZM238.937 34.5455C238.283 34.5455 237.72 34.3229 237.246 33.8778C236.782 33.4328 236.55 32.8977 236.55 32.2727C236.55 31.6477 236.782 31.1127 237.246 30.6676C237.72 30.2225 238.283 30 238.937 30C239.59 30 240.149 30.2225 240.613 30.6676C241.086 31.1127 241.323 31.6477 241.323 32.2727C241.323 32.8977 241.086 33.4328 240.613 33.8778C240.149 34.3229 239.59 34.5455 238.937 34.5455ZM250.077 30.9091V60H246.724V30.9091H250.077ZM258.376 68.1818C257.808 68.1818 257.301 68.1345 256.856 68.0398C256.411 67.9545 256.103 67.8693 255.933 67.7841L256.785 64.8295C257.599 65.0379 258.319 65.1136 258.944 65.0568C259.569 65 260.123 64.7206 260.606 64.2188C261.098 63.7263 261.548 62.9261 261.955 61.8182L262.58 60.1136L254.512 38.1818H258.148L264.171 55.5682H264.398L270.421 38.1818H274.058L264.796 63.1818C264.379 64.3087 263.863 65.2415 263.248 65.9801C262.632 66.7282 261.917 67.2822 261.103 67.642C260.298 68.0019 259.389 68.1818 258.376 68.1818Z" fill="#38BEC9"/>
<rect width="111" height="107" fill="#38BEC9"/>
<path d="M27.0455 26.8182H35.4545L55.2273 75.1136H55.9091L75.6818 26.8182H84.0909V85H77.5V40.7955H76.9318L58.75 85H52.3864L34.2045 40.7955H33.6364V85H27.0455V26.8182Z" fill="white"/>
<path d="M27.0455 26.8182V25.8182H26.0455V26.8182H27.0455ZM35.4545 26.8182L36.38 26.4393L36.1257 25.8182H35.4545V26.8182ZM55.2273 75.1136L54.3018 75.4925L54.5561 76.1136H55.2273V75.1136ZM55.9091 75.1136V76.1136H56.5802L56.8345 75.4925L55.9091 75.1136ZM75.6818 26.8182V25.8182H75.0107L74.7564 26.4393L75.6818 26.8182ZM84.0909 26.8182H85.0909V25.8182H84.0909V26.8182ZM84.0909 85V86H85.0909V85H84.0909ZM77.5 85H76.5V86H77.5V85ZM77.5 40.7955H78.5V39.7955H77.5V40.7955ZM76.9318 40.7955V39.7955H76.2618L76.007 40.4151L76.9318 40.7955ZM58.75 85V86H59.42L59.6748 85.3804L58.75 85ZM52.3864 85L51.4615 85.3804L51.7164 86H52.3864V85ZM34.2045 40.7955L35.1294 40.4151L34.8745 39.7955H34.2045V40.7955ZM33.6364 40.7955V39.7955H32.6364V40.7955H33.6364ZM33.6364 85V86H34.6364V85H33.6364ZM27.0455 85H26.0455V86H27.0455V85ZM27.0455 27.8182H35.4545V25.8182H27.0455V27.8182ZM34.5291 27.1971L54.3018 75.4925L56.1527 74.7347L36.38 26.4393L34.5291 27.1971ZM55.2273 76.1136H55.9091V74.1136H55.2273V76.1136ZM56.8345 75.4925L76.6073 27.1971L74.7564 26.4393L54.9837 74.7347L56.8345 75.4925ZM75.6818 27.8182H84.0909V25.8182H75.6818V27.8182ZM83.0909 26.8182V85H85.0909V26.8182H83.0909ZM84.0909 84H77.5V86H84.0909V84ZM78.5 85V40.7955H76.5V85H78.5ZM77.5 39.7955H76.9318V41.7955H77.5V39.7955ZM76.007 40.4151L57.8252 84.6196L59.6748 85.3804L77.8566 41.1758L76.007 40.4151ZM58.75 84H52.3864V86H58.75V84ZM53.3112 84.6196L35.1294 40.4151L33.2797 41.1758L51.4615 85.3804L53.3112 84.6196ZM34.2045 39.7955H33.6364V41.7955H34.2045V39.7955ZM32.6364 40.7955V85H34.6364V40.7955H32.6364ZM33.6364 84H27.0455V86H33.6364V84ZM28.0455 85V26.8182H26.0455V85H28.0455Z" fill="white"/>
</svg>
