<svg width="111" height="107" viewBox="0 0 111 107" fill="none" xmlns="http://www.w3.org/2000/svg">
<rect width="111" height="107" fill="#38BEC9"/>
<path d="M27.0455 26.8182H35.4545L55.2273 75.1136H55.9091L75.6818 26.8182H84.0909V85H77.5V40.7955H76.9318L58.75 85H52.3864L34.2045 40.7955H33.6364V85H27.0455V26.8182Z" fill="white"/>
<path d="M27.0455 26.8182V25.8182H26.0455V26.8182H27.0455ZM35.4545 26.8182L36.38 26.4393L36.1257 25.8182H35.4545V26.8182ZM55.2273 75.1136L54.3018 75.4925L54.5561 76.1136H55.2273V75.1136ZM55.9091 75.1136V76.1136H56.5802L56.8345 75.4925L55.9091 75.1136ZM75.6818 26.8182V25.8182H75.0107L74.7564 26.4393L75.6818 26.8182ZM84.0909 26.8182H85.0909V25.8182H84.0909V26.8182ZM84.0909 85V86H85.0909V85H84.0909ZM77.5 85H76.5V86H77.5V85ZM77.5 40.7955H78.5V39.7955H77.5V40.7955ZM76.9318 40.7955V39.7955H76.2618L76.007 40.4151L76.9318 40.7955ZM58.75 85V86H59.42L59.6748 85.3804L58.75 85ZM52.3864 85L51.4615 85.3804L51.7164 86H52.3864V85ZM34.2045 40.7955L35.1294 40.4151L34.8745 39.7955H34.2045V40.7955ZM33.6364 40.7955V39.7955H32.6364V40.7955H33.6364ZM33.6364 85V86H34.6364V85H33.6364ZM27.0455 85H26.0455V86H27.0455V85ZM27.0455 27.8182H35.4545V25.8182H27.0455V27.8182ZM34.5291 27.1971L54.3018 75.4925L56.1527 74.7347L36.38 26.4393L34.5291 27.1971ZM55.2273 76.1136H55.9091V74.1136H55.2273V76.1136ZM56.8345 75.4925L76.6073 27.1971L74.7564 26.4393L54.9837 74.7347L56.8345 75.4925ZM75.6818 27.8182H84.0909V25.8182H75.6818V27.8182ZM83.0909 26.8182V85H85.0909V26.8182H83.0909ZM84.0909 84H77.5V86H84.0909V84ZM78.5 85V40.7955H76.5V85H78.5ZM77.5 39.7955H76.9318V41.7955H77.5V39.7955ZM76.007 40.4151L57.8252 84.6196L59.6748 85.3804L77.8566 41.1758L76.007 40.4151ZM58.75 84H52.3864V86H58.75V84ZM53.3112 84.6196L35.1294 40.4151L33.2797 41.1758L51.4615 85.3804L53.3112 84.6196ZM34.2045 39.7955H33.6364V41.7955H34.2045V39.7955ZM32.6364 40.7955V85H34.6364V40.7955H32.6364ZM33.6364 84H27.0455V86H33.6364V84ZM28.0455 85V26.8182H26.0455V85H28.0455Z" fill="white"/>
</svg>
